<svg height="142.4745" width="479.88901" xmlns="http://www.w3.org/2000/svg" xmlns:xlink="http://www.w3.org/1999/xlink"><marker id="a" orient="auto" overflow="visible" refX="0" refY="0"><path d="m0 0 5-5-17.5 5 17.5 5z" fill-rule="evenodd" stroke="#000" stroke-width="1pt" transform="matrix(-.8 0 0 -.8 -10 0)"/></marker><filter id="b" color-interpolation-filters="sRGB"><feGaussianBlur stdDeviation=".97043326"/></filter><filter id="c" color-interpolation-filters="sRGB"><feGaussianBlur stdDeviation="1.5758929"/></filter><filter id="d" color-interpolation-filters="sRGB"><feGaussianBlur stdDeviation=".55803571"/></filter><g transform="translate(-57.357143 -56.839218)"><path d="m254.14285 127.36218h56.42857v32.857143h-56.42857z" fill="#ffb380" filter="url(#d)"/><path d="m77.142853 125.93362h110.71429v47.142857h-110.71429z" fill-opacity=".111111" filter="url(#b)"/><text font-family="AppleGothic" font-size="40" letter-spacing="0" word-spacing="0" x="99.285721" y="84.505035"><tspan font-family="AppleGothic" font-size="16" x="99.285721" y="84.505035">Working</tspan><tspan font-family="AppleGothic" font-size="16" x="99.285721" y="104.50504">directory</tspan></text><text font-family="AppleGothic" font-size="40" letter-spacing="0" text-anchor="middle" word-spacing="0" x="279.17413" y="85.897034"><tspan font-family="AppleGothic" font-size="16" text-anchor="middle" x="279.17413" y="85.897034">*.ipynb</tspan><tspan font-family="AppleGothic" font-size="16" text-anchor="middle" x="279.17413" y="105.89703">filters</tspan></text><text font-family="AppleGothic" font-size="40" letter-spacing="0" word-spacing="0" x="433.90839" y="95.913033"><tspan font-family="AppleGothic" font-size="16" x="433.90839" y="95.913033">Git</tspan></text><text font-family="AppleGothic" font-size="16" letter-spacing="0" text-anchor="middle" word-spacing="0" x="131.48947" y="144.40105"><tspan x="131.48947" y="144.40105">Notebook</tspan><tspan x="131.48947" y="164.40105">with outputs</tspan></text><text x="270.71429" y="125.93361"><tspan x="270.71429" y="125.93361"/><tspan x="270.71429" y="175.93361"/></text><text font-family="AppleGothic" font-size="16" letter-spacing="0" text-anchor="middle" word-spacing="0" x="444.04752" y="144.40105"><tspan x="444.04752" y="144.40105">Notebook</tspan><tspan x="444.04752" y="164.40105">without outputs</tspan></text><path d="m329.28574 123.07648h196.42857v55.714287h-196.42857z" fill-opacity=".111111" filter="url(#c)" transform="matrix(.68950193 0 0 .87945766 150.09974 16.123286)"/><g fill="none" stroke="#000"><path d="m187.35714 144.21933h65.31864" marker-end="url(#a)" stroke-width="1.031177"/><path d="m310.35202 144.21932h66.24636" marker-end="url(#a)" stroke-width="1.057076"/><path d="m57.857143 59.505039h147.85715v136.42857h-147.85715z" stroke-dasharray="4 8" stroke-linejoin="round"/><path d="m231.64285 58.790752h97.642853v137.85715h-97.642853z" stroke-dasharray="4.101782 8.203564" stroke-dashoffset=".717812" stroke-linejoin="round" stroke-width="1.025445"/><path d="m357 57.362183h179.72318v141.42857h-179.72318z" stroke-dasharray="4.183715 8.367431" stroke-dashoffset=".73215" stroke-linejoin="round" stroke-width="1.045929"/></g><text font-family="AppleGothic" font-size="16" letter-spacing="0" text-anchor="middle" word-spacing="0" x="281.64285" y="148.59943"><tspan x="281.64285" y="148.59943">clean</tspan></text></g></svg>