<svg height="131.82262" width="454.67288" xmlns="http://www.w3.org/2000/svg" xmlns:xlink="http://www.w3.org/1999/xlink"><marker id="a" orient="auto" overflow="visible" refX="0" refY="0"><path d="m0 0 5-5-17.5 5 17.5 5z" fill-rule="evenodd" stroke="#000" stroke-width="1pt" transform="matrix(-.8 0 0 -.8 -10 0)"/></marker><filter id="b" color-interpolation-filters="sRGB"><feGaussianBlur stdDeviation=".97043326"/></filter><filter id="c" color-interpolation-filters="sRGB"><feGaussianBlur stdDeviation="1.5758929"/></filter><filter id="d" color-interpolation-filters="sRGB"><feGaussianBlur stdDeviation=".55803571"/></filter><g transform="translate(-57.371465 -56.893004)"><path d="m254.14285 127.36218h56.42857v32.857143h-56.42857z" fill="#ffb380" filter="url(#d)" transform="matrix(1.1986923 0 0 1 -60.102201 0)"/><path d="m77.142853 125.93362h110.71429v47.142857h-110.71429z" fill-opacity=".111111" filter="url(#b)" transform="matrix(1.1609159 0 0 1 -22.311115 0)"/><g font-family="AppleGothic" letter-spacing="0" word-spacing="0"><text font-size="40" x="99.285721" y="84.505035"><tspan font-family="AppleGothic" font-size="16" x="99.285721" y="84.505035">Working</tspan><tspan font-family="AppleGothic" font-size="16" x="99.285721" y="104.50504">directory</tspan></text><text font-size="40" text-anchor="middle" x="279.17413" y="85.897034"><tspan font-family="AppleGothic" font-size="16" text-anchor="middle" x="279.17413" y="85.897034">*.ipynb</tspan><tspan font-family="AppleGothic" font-size="16" text-anchor="middle" x="279.17413" y="105.89703">filters</tspan></text><text font-size="40" x="421.90839" y="95.913033"><tspan font-family="AppleGothic" font-size="16" x="421.90839" y="95.913033">Git</tspan></text><text font-size="16" text-anchor="middle" x="131.48947" y="144.40105"><tspan x="131.48947" y="144.40105">Notebook</tspan><tspan x="131.48947" y="164.40105">without outputs</tspan></text></g><text x="270.71429" y="125.93361"><tspan x="270.71429" y="125.93361"/><tspan x="270.71429" y="175.93361"/></text><text font-family="AppleGothic" font-size="16" letter-spacing="0" text-anchor="middle" word-spacing="0" x="432.04752" y="144.40105"><tspan x="432.04752" y="144.40105">Notebook</tspan><tspan x="432.04752" y="164.40105">without outputs</tspan></text><path d="m329.28574 123.07648h196.42857v55.714287h-196.42857z" fill-opacity=".111111" filter="url(#c)" transform="matrix(.68950193 0 0 .87945766 138.09974 16.123286)"/><path d="m364.08195 144.21932h-50.97125" fill="none" marker-end="url(#a)" stroke="#000" stroke-width=".92723"/><path d="m57.857143 59.505039h156.13741v128.7249h-156.13741z" fill="none" stroke="#000" stroke-dasharray="3.992739 7.985478" stroke-linejoin="round" stroke-width=".998185"/><path d="m231.64285 58.790752h97.642853v128.09155h-97.642853z" style="fill:none;stroke:#000;stroke-width:.988458;stroke-linejoin:round;stroke-dasharray:3.953832 7.907663;stroke-dashoffset:.691921"/><path d="m353.8299 57.362183h157.74529v129.69339h-157.74529z" style="fill:none;stroke:#000;stroke-width:.938358;stroke-linejoin:round;stroke-dasharray:3.753433 7.506865;stroke-dashoffset:.656851"/><text font-family="AppleGothic" font-size="16" letter-spacing="0" text-anchor="middle" word-spacing="0" x="277.64285" y="148.59943"><tspan x="277.64285" y="148.59943">smudge</tspan></text><path d="m243.6773 144.21932h-46.15004" fill="none" marker-end="url(#a)" stroke="#000" stroke-width=".882289"/></g></svg>